<?xml version="1.0" standalone="no"?>
<!DOCTYPE svg PUBLIC "-//W3C//DTD SVG 20010904//EN"
 "http://www.w3.org/TR/2001/REC-SVG-20010904/DTD/svg10.dtd">
<svg version="1.0" xmlns="http://www.w3.org/2000/svg"
 width="495.000000pt" height="360.000000pt" viewBox="0 0 495.000000 360.000000"
 preserveAspectRatio="xMidYMid meet">

<g transform="translate(0.000000,360.000000) scale(0.100000,-0.100000)"
fill="#000000" stroke="none">
<path d="M3378 3098 c-18 -24 -208 -263 -422 -533 -215 -269 -434 -545 -488
-613 l-97 -123 -233 293 c-128 161 -265 333 -303 382 l-70 88 -3 -402 c-1
-221 -1 -579 0 -797 l3 -395 135 170 135 171 5 227 5 226 84 -106 c46 -58 88
-106 92 -106 4 0 22 19 41 43 45 57 365 461 693 872 516 648 499 626 484 636
-22 14 -25 12 -61 -33z"/>
<path d="M2768 2077 c-224 -281 -600 -755 -837 -1052 -375 -471 -428 -542
-415 -555 12 -13 16 -13 28 0 7 8 139 173 291 365 153 193 323 406 377 475 55
69 103 126 106 127 4 2 39 -38 77 -87 39 -49 73 -90 78 -90 4 0 103 120 220
267 l212 267 3 -402 2 -402 140 0 140 0 0 800 c0 440 -3 800 -7 800 -5 0 -191
-231 -415 -513z"/>
</g>
</svg>
